<svg width="128" height="128" viewBox="0 0 128 128" fill="none" xmlns="http://www.w3.org/2000/svg">
  <circle cx="64" cy="64" r="60" fill="#8A9A5B" />
  <path d="M45 42C45 33.716 51.716 27 60 27H68C76.284 27 83 33.716 83 42V86C83 94.284 76.284 101 68 101H60C51.716 101 45 94.284 45 86V42Z" fill="#FFFDD0" />
  <path d="M40 64C40 55.716 46.716 49 55 49H73C81.284 49 88 55.716 88 64V64C88 72.284 81.284 79 73 79H55C46.716 79 40 72.284 40 64V64Z" fill="#8B5A2B" />
  <path d="M64 37C68.418 37 72 40.582 72 45C72 49.418 68.418 53 64 53C59.582 53 56 49.418 56 45C56 40.582 59.582 37 64 37Z" fill="#D4AF37" />
  <path d="M64 75C68.418 75 72 78.582 72 83C72 87.418 68.418 91 64 91C59.582 91 56 87.418 56 83C56 78.582 59.582 75 64 75Z" fill="#D4AF37" />
</svg>